HIERARCHY
ROOT Hips
{
	OFFSET 0.000000 0.000000 0.000000
	CHANNELS 6 Xposition Yposition Zposition Zrotation Yrotation Xrotation 
	JOINT LHipJoint
	{
		OFFSET 0.000000 0.000000 0.000000
		CHANNELS 3 Zrotation Yrotation Xrotation
		JOINT LeftUpLeg
		{
			OFFSET 1.363060 -1.794630 0.839290
			CHANNELS 3 Zrotation Yrotation Xrotation
			JOINT LeftLeg
			{
				OFFSET 2.448110 -6.726130 0.000000
				CHANNELS 3 Zrotation Yrotation Xrotation
				JOINT LeftFoot
				{
					OFFSET 2.562200 -7.039590 0.000000
					CHANNELS 3 Zrotation Yrotation Xrotation
					JOINT LeftToeBase
					{
						OFFSET 0.157640 -0.433110 2.322550
						CHANNELS 3 Zrotation Yrotation Xrotation
						End Site
						{
							OFFSET 0.000000 0.000000 0.000000
						}
					}
				}
			}
		}
	}
	JOINT RHipJoint
	{
		OFFSET 0.000000 0.000000 0.000000
		CHANNELS 3 Zrotation Yrotation Xrotation
		JOINT RightUpLeg
		{
			OFFSET -1.305520 -1.794630 0.839290
			CHANNELS 3 Zrotation Yrotation Xrotation
			JOINT RightLeg
			{
				OFFSET -2.542530 -6.985550 0.000000
				CHANNELS 3 Zrotation Yrotation Xrotation
				JOINT RightFoot
				{
					OFFSET -2.568260 -7.056230 0.000000
					CHANNELS 3 Zrotation Yrotation Xrotation
					JOINT RightToeBase
					{
						OFFSET -0.164730 -0.452590 2.363150
						CHANNELS 3 Zrotation Yrotation Xrotation
						End Site
						{
							OFFSET 0.000000 0.000000 0.000000
						}
					}
				}
			}
		}
	}
	JOINT LowerBack
	{
		OFFSET 0.000000 0.000000 0.000000
		CHANNELS 3 Zrotation Yrotation Xrotation
		JOINT Spine
		{
			OFFSET 0.028270 2.035590 -0.193380
			CHANNELS 3 Zrotation Yrotation Xrotation
			JOINT Spine1
			{
				OFFSET 0.056720 2.048850 -0.042750
				CHANNELS 3 Zrotation Yrotation Xrotation
				JOINT Neck
				{
					OFFSET 0.000000 0.000000 0.000000
					CHANNELS 3 Zrotation Yrotation Xrotation
					JOINT Neck1
					{
						OFFSET -0.054170 1.746240 0.172020
						CHANNELS 3 Zrotation Yrotation Xrotation
						JOINT Head
						{
							OFFSET 0.104070 1.761360 -0.123970
							CHANNELS 3 Zrotation Yrotation Xrotation
							End Site
							{
								OFFSET 0.000000 0.000000 0.000000
							}
						}
					}
				}
				JOINT LeftShoulder
				{
					OFFSET 0.000000 0.000000 0.000000
					CHANNELS 3 Zrotation Yrotation Xrotation
					JOINT LeftArm
					{
						OFFSET 3.362410 1.200890 -0.311210
						CHANNELS 3 Zrotation Yrotation Xrotation
						JOINT LeftForeArm
						{
							OFFSET 4.983000 -0.000000 -0.000000
							CHANNELS 3 Zrotation Yrotation Xrotation
							JOINT LeftHand
							{
								OFFSET 3.483560 -0.000000 -0.000000
								CHANNELS 3 Zrotation Yrotation Xrotation
								JOINT LeftFingerBase
								{
									OFFSET 0.000000 0.000000 0.000000
									CHANNELS 3 Zrotation Yrotation Xrotation
									JOINT LeftHandIndex1
									{
										OFFSET 0.715260 -0.000000 -0.000000
										CHANNELS 3 Zrotation Yrotation Xrotation
										End Site
										{
											OFFSET 0.000000 0.000000 0.000000
										}
									}
								}
								JOINT LThumb
								{
									OFFSET 0.000000 0.000000 0.000000
									CHANNELS 3 Zrotation Yrotation Xrotation
									End Site
									{
										OFFSET 0.000000 0.000000 0.000000
									}
								}
							}
						}
					}
				}
				JOINT RightShoulder
				{
					OFFSET 0.000000 0.000000 0.000000
					CHANNELS 3 Zrotation Yrotation Xrotation
					JOINT RightArm
					{
						OFFSET -3.136600 1.374050 -0.404650
						CHANNELS 3 Zrotation Yrotation Xrotation
						JOINT RightForeArm
						{
							OFFSET -5.241900 -0.000000 -0.000000
							CHANNELS 3 Zrotation Yrotation Xrotation
							JOINT RightHand
							{
								OFFSET -3.444170 -0.000000 -0.000000
								CHANNELS 3 Zrotation Yrotation Xrotation
								JOINT RightFingerBase
								{
									OFFSET 0.000000 0.000000 0.000000
									CHANNELS 3 Zrotation Yrotation Xrotation
									JOINT RightHandIndex1
									{
										OFFSET -0.622530 -0.000000 -0.000000
										CHANNELS 3 Zrotation Yrotation Xrotation
										End Site
										{
											OFFSET 0.000000 0.000000 0.000000
										}
									}
								}
								JOINT RThumb
								{
									OFFSET 0.000000 0.000000 0.000000
									CHANNELS 3 Zrotation Yrotation Xrotation
									End Site
									{
										OFFSET 0.000000 0.000000 0.000000
									}
								}
							}
						}
					}
				}
			}
		}
	}
}
MOTION
Frames: 6
Frame Time: 0.008333
-5.471694 17.481987 4.660844 -77.742251 -80.742342 81.189054 0.372674 -1.437439 -1.860357 -2.487282 -14.884937 -18.903400 2.288180 10.556778 29.666599 0.933430 -4.868067 1.028887 0.117900 -2.213900 -6.097000 0.131172 0.734944 -1.728622 24.127542 -3.304906 -16.883081 -10.014555 -18.106482 59.491155 1.920514 -17.957670 9.158264 -0.097800 -2.016500 5.551100 -0.071386 4.130727 6.966746 -3.572599 5.573072 -2.819217 -5.685908 2.549283 1.872394 2.193335 15.476669 -7.358351 -3.998638 21.457987 31.090956 0.479000 8.076900 14.904800 5.202759 3.151070 0.609871 -76.595034 -10.749568 1.205393 14.153300 -30.312898 -3.823880 1.471887 1.845903 25.300640 14.131098 19.151374 4.006900 -7.125000 0.000000 0.000000 -13.522600 46.802900 -0.612500 -3.335096 -5.156849 -1.468643 84.237777 0.383511 16.408987 -11.712564 24.459753 -2.737845 -0.624162 0.250449 17.895722 -10.228256 -20.514074 3.391600 7.125000 0.000000 0.000000 18.724300 -49.900600 -2.334600 
-5.578781 17.488538 4.681786 -78.100427 -80.843954 81.553673 0.372689 -1.426988 -1.853541 -2.787920 -14.798862 -18.560849 2.314370 10.604372 29.811001 0.946016 -4.959811 0.684124 0.107900 -2.117600 -5.830700 0.136774 0.746332 -1.738635 23.833410 -3.284037 -17.828625 -10.207060 -18.216324 60.105237 2.012837 -18.407403 8.999865 -0.114400 -2.180400 6.004600 -0.223941 4.071453 7.092315 -3.563280 5.481353 -2.789611 -5.598892 2.501078 1.848970 2.159583 15.491852 -7.361739 -4.006430 21.481542 31.090097 0.485700 8.077800 14.902400 5.185427 3.152381 0.619402 -76.799167 -10.783278 2.022662 14.575441 -30.870395 -3.980425 1.468700 1.859109 24.753344 14.485465 19.153123 4.109900 -7.125000 0.000000 0.000000 -13.206900 46.842400 -0.610800 -3.328542 -5.158703 -1.466585 84.354035 0.274751 16.211131 -11.646565 24.357870 -2.711181 -0.623350 0.251386 17.958589 -10.188723 -20.457012 3.368600 7.125000 0.000000 0.000000 18.735500 -49.840400 -2.307600 
-5.684777 17.496279 4.701635 -78.497018 -80.938308 81.966707 0.372664 -1.415652 -1.846217 -3.071579 -14.702657 -18.204155 2.331185 10.635630 29.902998 0.958132 -5.039612 0.338488 0.099600 -2.035100 -5.602800 0.141919 0.758432 -1.749250 23.560685 -3.250113 -18.766170 -10.364107 -18.305120 60.605469 2.108913 -18.822476 8.751805 -0.130600 -2.329000 6.415800 -0.368162 4.010035 7.210916 -3.550956 5.387413 -2.760222 -5.509163 2.451883 1.828880 2.121920 15.508908 -7.370465 -4.017490 21.509281 31.083147 0.492600 8.080000 14.898300 5.167245 3.152669 0.629038 -77.003510 -10.796345 2.856566 15.025540 -31.453289 -4.149824 1.465859 1.871661 24.229902 14.855578 19.159395 4.219100 -7.125000 0.000000 0.000000 -12.877500 46.888800 -0.610000 -3.321322 -5.159598 -1.464868 84.463607 0.174561 16.055407 -11.598322 24.283035 -2.691843 -0.622579 0.252225 17.994128 -10.160477 -20.401375 3.350000 7.125000 0.000000 0.000000 18.736900 -49.783700 -2.280900 
-5.789681 17.505013 4.720393 -78.935273 -81.025470 82.431233 0.372733 -1.403284 -1.838092 -3.338746 -14.598667 -17.833630 2.338659 10.650999 29.944022 0.969567 -5.106059 -0.001736 0.092900 -1.965500 -5.410400 0.146833 0.771166 -1.760138 23.308751 -3.202747 -19.692162 -10.483175 -18.372672 60.985076 2.207748 -19.200934 8.418747 -0.145900 -2.461700 6.783500 -0.499922 3.949638 7.325300 -3.538176 5.295210 -2.732882 -5.425263 2.403577 1.807915 2.086730 15.524421 -7.380201 -4.030398 21.534338 31.070504 0.498200 8.081600 14.892100 5.147477 3.151738 0.638649 -77.199672 -10.785682 3.714461 15.504345 -32.060157 -4.332594 1.463325 1.883980 23.726499 15.240565 19.176025 4.335800 -7.125000 0.000000 0.000000 -12.536700 46.947200 -0.611700 -3.313463 -5.159550 -1.463409 84.573386 0.074905 15.930872 -11.568625 24.236793 -2.680204 -0.621816 0.252752 18.003571 -10.133022 -20.348728 3.332200 7.125000 0.000000 0.000000 18.738800 -49.729700 -2.255600 
-5.893692 17.514640 4.738059 -79.416108 -81.106222 82.948304 0.372803 -1.390005 -1.829314 -3.590065 -14.487447 -17.451106 2.337253 10.651423 29.936787 0.980999 -5.165645 -0.330282 0.086800 -1.900800 -5.231500 0.151288 0.784516 -1.771499 23.076512 -3.141446 -20.601837 -10.562009 -18.418914 61.238387 2.307972 -19.541565 8.006067 -0.160700 -2.583200 7.120300 -0.623209 3.888874 7.432238 -3.523272 5.203169 -2.706344 -5.340614 2.355631 1.789649 2.049957 15.539569 -7.393018 -4.045793 21.559708 31.052104 0.503200 8.083300 14.884000 5.126858 3.149842 0.648176 -77.392739 -10.753510 4.581118 16.009673 -32.687523 -4.528567 1.460767 1.896404 23.247398 15.632806 19.204842 4.458500 -7.125000 0.000000 0.000000 -12.191400 47.019000 -0.616200 -3.305035 -5.158566 -1.462206 84.678171 -0.020472 15.843729 -11.556579 24.218027 -2.676067 -0.621034 0.253068 17.985910 -10.109360 -20.296644 3.315900 7.125000 0.000000 0.000000 18.737500 -49.677300 -2.230600 
-5.996810 17.525160 4.754534 -79.933291 -81.181988 83.512165 0.372810 -1.375852 -1.819783 -3.827748 -14.370714 -17.056724 2.327037 10.636924 29.881641 0.992522 -5.219941 -0.647503 0.081700 -1.843900 -5.074400 0.155314 0.798374 -1.783153 22.861713 -3.066291 -21.492109 -10.599083 -18.443628 61.361224 2.407633 -19.838961 7.517793 -0.174600 -2.691700 7.421500 -0.738322 3.827754 7.532722 -3.507256 5.111180 -2.681487 -5.257797 2.307687 1.771682 2.013184 15.554763 -7.408169 -4.062392 21.585009 31.029301 0.508000 8.085100 14.874400 5.105289 3.146830 0.657463 -77.579797 -10.698909 5.449457 16.539629 -33.331490 -4.737394 1.457707 1.908860 22.790146 16.027093 19.242880 4.585300 -7.125000 0.000000 0.000000 -11.844900 47.100500 -0.622400 -3.296129 -5.156649 -1.461275 84.779706 -0.113405 15.793665 -11.561574 24.225641 -2.678932 -0.620248 0.253125 17.942048 -10.087592 -20.246393 3.300800 7.125000 0.000000 0.000000 18.735300 -49.627000 -2.206500 
